<svg xmlns="http://www.w3.org/2000/svg" xmlns:xlink="http://www.w3.org/1999/xlink" width="500" zoomAndPan="magnify" viewBox="0 0 375 374.999991" height="500" preserveAspectRatio="xMidYMid meet" version="1.0"><defs><g/><clipPath id="2183175b0a"><path d="M 44.109375 4.703125 L 168 4.703125 L 168 146 L 44.109375 146 Z M 44.109375 4.703125 " clip-rule="nonzero"/></clipPath><clipPath id="d3f30ee6d7"><path d="M 98 120 L 168 120 L 168 207.203125 L 98 207.203125 Z M 98 120 " clip-rule="nonzero"/></clipPath><clipPath id="0bbcfd9e81"><path d="M 207 66 L 330.609375 66 L 330.609375 207.203125 L 207 207.203125 Z M 207 66 " clip-rule="nonzero"/></clipPath><clipPath id="908ea660e0"><path d="M 207 4.703125 L 277 4.703125 L 277 92 L 207 92 Z M 207 4.703125 " clip-rule="nonzero"/></clipPath></defs><g clip-path="url(#2183175b0a)"><path fill="#df0e18" d="M 44.109375 105.964844 L 167.980469 4.800781 L 167.980469 72.707031 L 116.761719 114.539062 L 99.894531 128.316406 C 95.304688 132.0625 92.675781 137.609375 92.675781 143.53125 C 92.675781 144.269531 92.714844 145 92.796875 145.722656 Z M 44.109375 105.964844 " fill-opacity="1" fill-rule="nonzero"/></g><g clip-path="url(#d3f30ee6d7)"><path fill="#df0e18" d="M 103.4375 154.414062 C 100.15625 151.734375 98.273438 147.769531 98.273438 143.53125 C 98.273438 139.296875 100.15625 135.332031 103.4375 132.652344 L 118.53125 120.324219 L 167.980469 160.710938 L 167.980469 207.128906 Z M 103.4375 154.414062 " fill-opacity="1" fill-rule="nonzero"/></g><g clip-path="url(#0bbcfd9e81)"><path fill="#000000" d="M 207.027344 139.21875 L 258.246094 97.386719 L 275.113281 83.613281 C 279.703125 79.867188 282.335938 74.320312 282.335938 68.394531 C 282.335938 67.65625 282.292969 66.925781 282.214844 66.203125 L 330.898438 105.964844 L 207.027344 207.128906 Z M 207.027344 139.21875 " fill-opacity="1" fill-rule="nonzero"/></g><g clip-path="url(#908ea660e0)"><path fill="#000000" d="M 207.027344 51.214844 L 207.027344 4.800781 L 271.574219 57.511719 C 274.851562 60.191406 276.734375 64.15625 276.734375 68.394531 C 276.734375 72.628906 274.851562 76.597656 271.574219 79.273438 L 256.476562 91.601562 Z M 207.027344 51.214844 " fill-opacity="1" fill-rule="nonzero"/></g><g fill="#000000" fill-opacity="1"><g transform="translate(51.944899, 321.152894)"><g><path d="M 34.6875 -40.46875 L 23.40625 -40.46875 L 23.40625 -44.796875 C 23.40625 -45.242188 23.25 -45.632812 22.9375 -45.96875 C 22.632812 -46.3125 22.253906 -46.484375 21.796875 -46.484375 L 17.140625 -46.484375 C 16.679688 -46.484375 16.296875 -46.3125 15.984375 -45.96875 C 15.679688 -45.632812 15.53125 -45.242188 15.53125 -44.796875 L 15.53125 -35.03125 C 15.53125 -34.582031 15.679688 -34.1875 15.984375 -33.84375 C 16.296875 -33.507812 16.679688 -33.34375 17.140625 -33.34375 L 24.765625 -33.34375 C 31.773438 -33.226562 35.28125 -29.492188 35.28125 -22.140625 L 35.28125 -10.34375 C 35.28125 -2.882812 31.773438 0.84375 24.765625 0.84375 L 14.765625 0.84375 C 7.742188 0.84375 4.234375 -2.882812 4.234375 -10.34375 L 4.234375 -16.03125 L 15.53125 -16.03125 L 15.53125 -9.921875 C 15.53125 -9.472656 15.679688 -9.078125 15.984375 -8.734375 C 16.296875 -8.398438 16.679688 -8.234375 17.140625 -8.234375 L 22.390625 -8.234375 C 22.847656 -8.234375 23.226562 -8.398438 23.53125 -8.734375 C 23.84375 -9.078125 24 -9.472656 24 -9.921875 L 24 -20.703125 C 24 -21.148438 23.84375 -21.539062 23.53125 -21.875 C 23.226562 -22.21875 22.847656 -22.390625 22.390625 -22.390625 L 14.765625 -22.390625 C 7.742188 -22.390625 4.234375 -26.125 4.234375 -33.59375 L 4.234375 -44.53125 C 4.234375 -52 7.742188 -55.734375 14.765625 -55.734375 L 24.171875 -55.734375 C 31.179688 -55.734375 34.6875 -52 34.6875 -44.53125 Z M 34.6875 -40.46875 "/></g></g></g><g fill="#000000" fill-opacity="1"><g transform="translate(99.699978, 321.152894)"><g><path d="M 36.046875 -54.890625 L 24.265625 -20.015625 L 24.265625 0 L 12.390625 0 L 12.390625 -20.015625 L 0.59375 -54.890625 L 11.796875 -54.890625 L 18.328125 -31.984375 L 24.859375 -54.890625 Z M 36.046875 -54.890625 "/></g></g></g><g fill="#000000" fill-opacity="1"><g transform="translate(145.504219, 321.152894)"><g><path d="M 35.71875 0 L 23.84375 0 L 23.84375 -45.546875 C 23.84375 -46.003906 23.6875 -46.398438 23.375 -46.734375 C 23.0625 -47.078125 22.675781 -47.25 22.21875 -47.25 L 17.640625 -47.25 C 17.191406 -47.25 16.8125 -47.078125 16.5 -46.734375 C 16.1875 -46.398438 16.03125 -46.003906 16.03125 -45.546875 L 16.03125 0 L 4.15625 0 L 4.15625 -44.53125 C 4.15625 -52 7.660156 -55.734375 14.671875 -55.734375 L 25.1875 -55.734375 C 32.207031 -55.734375 35.71875 -52 35.71875 -44.53125 Z M 35.71875 0 "/></g></g></g><g fill="#000000" fill-opacity="1"><g transform="translate(193.853027, 321.152894)"><g><path d="M 1.109375 -44.796875 L 1.109375 -54.890625 L 30.796875 -54.890625 L 30.796875 -44.796875 L 21.890625 -44.796875 L 21.890625 0 L 10.015625 0 L 10.015625 -44.796875 Z M 1.109375 -44.796875 "/></g></g></g><g fill="#000000" fill-opacity="1"><g transform="translate(234.737778, 321.152894)"><g><path d="M 26.046875 -55.734375 C 33.054688 -55.734375 36.5625 -52 36.5625 -44.53125 L 36.5625 0 L 24.6875 0 L 24.6875 -18.40625 L 16.125 -18.40625 L 16.125 0 L 4.234375 0 L 4.234375 -44.53125 C 4.234375 -52 7.742188 -55.734375 14.765625 -55.734375 Z M 16.125 -27.5625 L 24.6875 -27.5625 L 24.6875 -45.984375 C 24.6875 -46.429688 24.53125 -46.820312 24.21875 -47.15625 C 23.90625 -47.5 23.523438 -47.671875 23.078125 -47.671875 L 17.734375 -47.671875 C 17.273438 -47.671875 16.890625 -47.5 16.578125 -47.15625 C 16.273438 -46.820312 16.125 -46.429688 16.125 -45.984375 Z M 16.125 -27.5625 "/></g></g></g><g fill="#000000" fill-opacity="1"><g transform="translate(284.782967, 321.152894)"><g><path d="M 36.046875 -54.890625 L 27.3125 -27.484375 L 37.15625 0 L 24.765625 0 L 19 -19.171875 L 13.234375 0 L 0.765625 0 L 10.609375 -27.484375 L 2.03125 -54.890625 L 13.578125 -54.890625 L 19 -37.15625 L 24.4375 -54.890625 Z M 36.046875 -54.890625 "/></g></g></g><g fill="#db0000" fill-opacity="1"><g transform="translate(97.834524, 364.273427)"><g><path d="M 2.765625 -9.140625 C 3.460938 -9.210938 3.992188 -9.421875 4.359375 -9.765625 C 4.734375 -10.117188 4.921875 -10.582031 4.921875 -11.15625 C 4.921875 -11.675781 4.863281 -12.640625 4.75 -14.046875 C 4.625 -15.359375 4.5625 -16.410156 4.5625 -17.203125 C 4.5625 -18.234375 4.863281 -19.039062 5.46875 -19.625 C 6.070312 -20.207031 6.867188 -20.5 7.859375 -20.5 L 9.328125 -20.5 L 9.328125 -18.328125 L 8.375 -18.328125 C 7.90625 -18.328125 7.554688 -18.222656 7.328125 -18.015625 C 7.097656 -17.804688 6.984375 -17.46875 6.984375 -17 C 6.984375 -16.644531 7.003906 -16.175781 7.046875 -15.59375 C 7.097656 -15.007812 7.128906 -14.59375 7.140625 -14.34375 C 7.273438 -13 7.34375 -11.90625 7.34375 -11.0625 C 7.34375 -10.320312 7.15625 -9.703125 6.78125 -9.203125 C 6.40625 -8.703125 5.832031 -8.375 5.0625 -8.21875 L 5.0625 -8.171875 C 5.832031 -8.015625 6.40625 -7.6875 6.78125 -7.1875 C 7.15625 -6.6875 7.34375 -6.066406 7.34375 -5.328125 C 7.34375 -4.472656 7.273438 -3.375 7.140625 -2.03125 C 7.128906 -1.789062 7.097656 -1.375 7.046875 -0.78125 C 7.003906 -0.195312 6.984375 0.265625 6.984375 0.609375 C 6.984375 1.078125 7.097656 1.414062 7.328125 1.625 C 7.554688 1.84375 7.90625 1.953125 8.375 1.953125 L 9.328125 1.953125 L 9.328125 4.125 L 7.859375 4.125 C 6.867188 4.125 6.070312 3.828125 5.46875 3.234375 C 4.863281 2.648438 4.5625 1.84375 4.5625 0.8125 C 4.5625 0.0195312 4.625 -1.03125 4.75 -2.34375 C 4.863281 -3.75 4.921875 -4.710938 4.921875 -5.234375 C 4.921875 -5.804688 4.734375 -6.265625 4.359375 -6.609375 C 3.992188 -6.960938 3.460938 -7.175781 2.765625 -7.25 Z M 2.765625 -9.140625 "/></g></g></g><g fill="#db0000" fill-opacity="1"><g transform="translate(116.58193, 364.273427)"><g><path d="M 11.484375 -15.21875 L 11.484375 -13.1875 L 7.421875 -13.1875 L 7.421875 0 L 4.921875 0 L 4.921875 -13.1875 L 0.859375 -13.1875 L 0.859375 -15.21875 Z M 11.484375 -15.21875 "/></g></g></g><g fill="#db0000" fill-opacity="1"><g transform="translate(136.380417, 364.273427)"><g><path d="M 13.796875 -15.21875 L 13.796875 0 L 11.296875 0 L 11.296875 -6.65625 L 4.140625 -6.65625 L 4.140625 0 L 1.640625 0 L 1.640625 -15.21875 L 4.140625 -15.21875 L 4.140625 -8.703125 L 11.296875 -8.703125 L 11.296875 -15.21875 Z M 13.796875 -15.21875 "/></g></g></g><g fill="#db0000" fill-opacity="1"><g transform="translate(159.266486, 364.273427)"><g><path d="M 9.546875 0 L 6.046875 -6.09375 L 4.140625 -6.09375 L 4.140625 0 L 1.640625 0 L 1.640625 -15.21875 L 6.90625 -15.21875 C 8.070312 -15.21875 9.054688 -15.015625 9.859375 -14.609375 C 10.671875 -14.203125 11.28125 -13.65625 11.6875 -12.96875 C 12.09375 -12.28125 12.296875 -11.515625 12.296875 -10.671875 C 12.296875 -9.671875 12.003906 -8.765625 11.421875 -7.953125 C 10.847656 -7.148438 9.960938 -6.601562 8.765625 -6.3125 L 12.53125 0 Z M 4.140625 -8.078125 L 6.90625 -8.078125 C 7.832031 -8.078125 8.53125 -8.3125 9 -8.78125 C 9.476562 -9.25 9.71875 -9.878906 9.71875 -10.671875 C 9.71875 -11.453125 9.484375 -12.066406 9.015625 -12.515625 C 8.554688 -12.960938 7.851562 -13.1875 6.90625 -13.1875 L 4.140625 -13.1875 Z M 4.140625 -8.078125 "/></g></g></g><g fill="#db0000" fill-opacity="1"><g transform="translate(180.554024, 364.273427)"><g><path d="M 4.140625 -13.203125 L 4.140625 -8.734375 L 9.390625 -8.734375 L 9.390625 -6.703125 L 4.140625 -6.703125 L 4.140625 -2.03125 L 10.0625 -2.03125 L 10.0625 0 L 1.640625 0 L 1.640625 -15.25 L 10.0625 -15.25 L 10.0625 -13.203125 Z M 4.140625 -13.203125 "/></g></g></g><g fill="#db0000" fill-opacity="1"><g transform="translate(199.476619, 364.273427)"><g><path d="M 10.828125 -3.109375 L 4.453125 -3.109375 L 3.359375 0 L 0.75 0 L 6.203125 -15.25 L 9.09375 -15.25 L 14.546875 0 L 11.921875 0 Z M 10.125 -5.140625 L 7.640625 -12.21875 L 5.140625 -5.140625 Z M 10.125 -5.140625 "/></g></g></g><g fill="#db0000" fill-opacity="1"><g transform="translate(222.187525, 364.273427)"><g><path d="M 6.609375 -15.21875 C 8.234375 -15.21875 9.65625 -14.90625 10.875 -14.28125 C 12.09375 -13.664062 13.035156 -12.773438 13.703125 -11.609375 C 14.367188 -10.453125 14.703125 -9.101562 14.703125 -7.5625 C 14.703125 -6.007812 14.367188 -4.660156 13.703125 -3.515625 C 13.035156 -2.378906 12.09375 -1.507812 10.875 -0.90625 C 9.65625 -0.300781 8.234375 0 6.609375 0 L 1.640625 0 L 1.640625 -15.21875 Z M 6.609375 -2.03125 C 8.390625 -2.03125 9.753906 -2.507812 10.703125 -3.46875 C 11.660156 -4.4375 12.140625 -5.800781 12.140625 -7.5625 C 12.140625 -9.320312 11.660156 -10.695312 10.703125 -11.6875 C 9.753906 -12.6875 8.390625 -13.1875 6.609375 -13.1875 L 4.140625 -13.1875 L 4.140625 -2.03125 Z M 6.609375 -2.03125 "/></g></g></g><g fill="#db0000" fill-opacity="1"><g transform="translate(245.161182, 364.273427)"><g><path d="M 6.65625 0.15625 C 5.632812 0.15625 4.710938 -0.0195312 3.890625 -0.375 C 3.078125 -0.738281 2.4375 -1.25 1.96875 -1.90625 C 1.5 -2.5625 1.265625 -3.328125 1.265625 -4.203125 L 3.9375 -4.203125 C 4 -3.546875 4.257812 -3.003906 4.71875 -2.578125 C 5.175781 -2.160156 5.820312 -1.953125 6.65625 -1.953125 C 7.519531 -1.953125 8.191406 -2.160156 8.671875 -2.578125 C 9.148438 -2.992188 9.390625 -3.53125 9.390625 -4.1875 C 9.390625 -4.695312 9.238281 -5.113281 8.9375 -5.4375 C 8.644531 -5.757812 8.273438 -6.003906 7.828125 -6.171875 C 7.378906 -6.347656 6.765625 -6.539062 5.984375 -6.75 C 4.984375 -7.007812 4.171875 -7.273438 3.546875 -7.546875 C 2.929688 -7.816406 2.40625 -8.234375 1.96875 -8.796875 C 1.53125 -9.367188 1.3125 -10.128906 1.3125 -11.078125 C 1.3125 -11.960938 1.53125 -12.734375 1.96875 -13.390625 C 2.40625 -14.046875 3.019531 -14.546875 3.8125 -14.890625 C 4.601562 -15.242188 5.515625 -15.421875 6.546875 -15.421875 C 8.023438 -15.421875 9.234375 -15.050781 10.171875 -14.3125 C 11.117188 -13.570312 11.640625 -12.5625 11.734375 -11.28125 L 8.984375 -11.28125 C 8.941406 -11.832031 8.675781 -12.304688 8.1875 -12.703125 C 7.707031 -13.097656 7.070312 -13.296875 6.28125 -13.296875 C 5.570312 -13.296875 4.988281 -13.113281 4.53125 -12.75 C 4.082031 -12.382812 3.859375 -11.859375 3.859375 -11.171875 C 3.859375 -10.703125 4 -10.316406 4.28125 -10.015625 C 4.5625 -9.722656 4.921875 -9.488281 5.359375 -9.3125 C 5.804688 -9.132812 6.40625 -8.941406 7.15625 -8.734375 C 8.164062 -8.460938 8.988281 -8.1875 9.625 -7.90625 C 10.257812 -7.625 10.800781 -7.195312 11.25 -6.625 C 11.695312 -6.050781 11.921875 -5.28125 11.921875 -4.3125 C 11.921875 -3.539062 11.710938 -2.8125 11.296875 -2.125 C 10.878906 -1.4375 10.269531 -0.882812 9.46875 -0.46875 C 8.675781 -0.0507812 7.738281 0.15625 6.65625 0.15625 Z M 6.65625 0.15625 "/></g></g></g><g fill="#db0000" fill-opacity="1"><g transform="translate(265.835592, 364.273427)"><g><path d="M 8.546875 -7.25 C 7.835938 -7.175781 7.296875 -6.960938 6.921875 -6.609375 C 6.554688 -6.265625 6.375 -5.804688 6.375 -5.234375 C 6.375 -4.710938 6.429688 -3.75 6.546875 -2.34375 C 6.679688 -1.03125 6.75 0.0195312 6.75 0.8125 C 6.75 1.84375 6.441406 2.648438 5.828125 3.234375 C 5.222656 3.828125 4.425781 4.125 3.4375 4.125 L 1.96875 4.125 L 1.96875 1.953125 L 2.9375 1.953125 C 3.40625 1.953125 3.75 1.84375 3.96875 1.625 C 4.195312 1.414062 4.3125 1.078125 4.3125 0.609375 C 4.3125 0.265625 4.289062 -0.195312 4.25 -0.78125 C 4.207031 -1.375 4.175781 -1.789062 4.15625 -2.03125 C 4.03125 -3.375 3.96875 -4.472656 3.96875 -5.328125 C 3.96875 -6.066406 4.148438 -6.6875 4.515625 -7.1875 C 4.890625 -7.6875 5.46875 -8.015625 6.25 -8.171875 L 6.25 -8.21875 C 5.46875 -8.375 4.890625 -8.703125 4.515625 -9.203125 C 4.148438 -9.703125 3.96875 -10.320312 3.96875 -11.0625 C 3.96875 -11.90625 4.03125 -13 4.15625 -14.34375 C 4.175781 -14.59375 4.207031 -15.007812 4.25 -15.59375 C 4.289062 -16.175781 4.3125 -16.644531 4.3125 -17 C 4.3125 -17.46875 4.195312 -17.804688 3.96875 -18.015625 C 3.75 -18.222656 3.40625 -18.328125 2.9375 -18.328125 L 1.96875 -18.328125 L 1.96875 -20.5 L 3.4375 -20.5 C 4.425781 -20.5 5.222656 -20.207031 5.828125 -19.625 C 6.441406 -19.039062 6.75 -18.234375 6.75 -17.203125 C 6.75 -16.410156 6.679688 -15.359375 6.546875 -14.046875 C 6.429688 -12.640625 6.375 -11.675781 6.375 -11.15625 C 6.375 -10.582031 6.554688 -10.117188 6.921875 -9.765625 C 7.296875 -9.421875 7.835938 -9.210938 8.546875 -9.140625 Z M 8.546875 -7.25 "/></g></g></g></svg>